<svg xmlns="http://www.w3.org/2000/svg" width="90" height="120" viewBox="0 0 90 120">
  <defs>
    <filter id="soft"><feGaussianBlur stdDeviation="2.2"/></filter>
    <linearGradient id="skin" x1="0" x2="0" y1="0" y2="1"><stop offset="0" stop-color="#c8946f"/><stop offset="1" stop-color="#b97f5e"/></linearGradient>
    <linearGradient id="cloth" x1="0" x2="1"><stop offset="0" stop-color="#7f7a43"/><stop offset="1" stop-color="#b9a658"/></linearGradient>
  </defs>
  <ellipse cx="45" cy="109" rx="23" ry="7" fill="#172219" opacity=".28" filter="url(#soft)"/>
  <g transform="translate(0 0) scale(1)" transform-origin="45px 60px">
    
    
    <path d="M28 45 Q45 36 62 45 L66 80 Q45 88 24 80 Z" fill="#7f7a43" stroke="#3e3027" stroke-width="2.4"/>
    
    <path d="M31 47 Q24 53 23 68" fill="none" stroke="#c8946f" stroke-width="7" stroke-linecap="round"/>
    <path d="M59 47 Q67 52 68 67" fill="none" stroke="#c8946f" stroke-width="7" stroke-linecap="round"/>
    <path d="M28 80 L30 105" stroke="#463b35" stroke-width="8" stroke-linecap="round"/>
    <path d="M57 80 L58 105" stroke="#463b35" stroke-width="8" stroke-linecap="round"/>
    <path d="M25 105 L36 105" stroke="#332a26" stroke-width="8" stroke-linecap="round"/>
    <path d="M53 105 L65 105" stroke="#332a26" stroke-width="8" stroke-linecap="round"/>
    <rect x="28" y="66" width="34" height="5" rx="2.5" fill="#4a382d" opacity=".95"/>
  
    <path d="M31 26 Q33 10 46 10 Q60 11 61 26 Q53 21 45 22 Q38 22 31 26 Z" fill="#4a3429" stroke="#33251f" stroke-width="2"/>
    <ellipse cx="45" cy="31" rx="13" ry="15" fill="url(#skin)" stroke="#624637" stroke-width="2"/>
    <circle cx="48.5" cy="29" r="1.3" fill="#332a25"/><path d="M49 37 Q45 40 40 37" fill="none" stroke="#8c5c4c" stroke-width="1.4" stroke-linecap="round"/>
    <ellipse cx="45" cy="14" rx="24" ry="5" fill="#c8a45c" stroke="#59442d" stroke-width="2"/><path d="M32 14 Q34 2 46 2 Q58 4 59 14 Z" fill="#ad8745" stroke="#59442d" stroke-width="2"/>
    
    <g transform="translate(65 58) rotate(18)"><rect x="0" y="-8" width="4" height="43" rx="2" fill="#76553a"/><path d="M-7 30 Q1 37 9 30" fill="none" stroke="#858a86" stroke-width="3"/></g>
  </g>
</svg>